<svg width="752" height="186" viewBox="0 0 752 186" fill="none" xmlns="http://www.w3.org/2000/svg">
<path d="M319.831 130.057C310.046 130.057 301.214 127.883 293.321 123.519C285.427 119.17 279.276 113.123 274.853 105.408C270.429 97.6936 268.225 89.1298 268.225 79.7022C268.225 65.2108 273.11 53.2066 282.895 43.6599C292.665 34.1131 304.982 29.3472 319.831 29.3472C334.68 29.3472 346.803 34.1131 356.588 43.6599C366.359 53.2066 371.259 65.2108 371.259 79.7022C371.259 94.1936 366.344 106.064 356.499 115.655C346.669 125.262 334.442 130.057 319.831 130.057ZM319.831 105.84C327.248 105.84 333.325 103.398 338.031 98.5128C342.737 93.6277 345.091 87.3575 345.091 79.6873C345.091 72.0172 342.737 65.7619 338.031 60.8768C333.325 55.9917 327.218 53.5492 319.742 53.5492C312.265 53.5492 306.159 55.9917 301.453 60.8768C296.731 65.7619 294.378 72.032 294.378 79.6873C294.378 83.4554 295.004 87.0001 296.24 90.2915C297.476 93.583 299.219 96.3532 301.453 98.6021C303.687 100.836 306.367 102.608 309.495 103.904C312.623 105.2 316.063 105.84 319.831 105.84Z" fill="#071412"/>
<path d="M458.574 31.9841H478.859V127.392H458.544L456.787 118.381C447.97 126.23 437.41 130.043 425.51 130.043C411.138 130.043 399.208 125.247 389.736 115.641C380.249 106.035 375.513 94.0007 375.513 79.5093C375.513 65.0179 380.249 53.1776 389.736 43.6457C399.223 34.0989 411.138 29.333 425.51 29.333C437.649 29.333 448.074 33.2202 456.787 40.9947L458.574 31.9841ZM408.979 98.2454C413.864 103.19 420.044 105.662 427.536 105.662C435.027 105.662 441.238 103.19 446.183 98.2454C451.127 93.3008 453.6 87.0604 453.6 79.5242C453.6 71.9881 451.127 65.7477 446.183 60.7882C441.238 55.8435 435.057 53.3712 427.625 53.3712C422.681 53.3712 418.227 54.518 414.281 56.8116C410.334 59.1052 407.236 62.2328 405.002 66.1796C402.768 70.1264 401.651 74.5796 401.651 79.5242C401.636 87.0604 404.079 93.3008 408.979 98.2454Z" fill="#071412"/>
<path d="M542.114 107.245H553.775V130.211H535.575C528.62 130.211 522.588 128.855 517.465 126.145C512.341 123.434 508.424 119.517 505.714 114.394C503.003 109.27 501.648 103.179 501.648 96.1044V52.6599H484.327V47.1791L522.141 7.0708H526.907V31.9877H553.239V52.6599H527.443V92.7533C527.443 97.3405 528.709 100.915 531.241 103.447C533.773 105.979 537.407 107.245 542.114 107.245" fill="#071412"/>
<path d="M656.722 79.3455C656.722 81.8178 656.543 84.3497 656.186 86.9412H584.101C585.158 93.4199 587.72 98.3943 591.786 101.865C595.852 105.35 601.065 107.077 607.424 107.077C611.773 107.077 615.72 106.109 619.265 104.158C622.794 102.222 625.565 99.5411 627.575 96.1156H654.786C651.256 106.482 645.239 114.733 636.765 120.854C628.275 126.975 618.505 130.043 607.439 130.043C593.305 130.043 581.524 125.218 572.097 115.552C562.669 105.886 557.963 93.9412 557.963 79.6881C557.963 74.0285 558.752 68.6222 560.346 63.4392C561.939 58.2563 564.233 53.6095 567.242 49.484C570.25 45.3585 573.75 41.7989 577.756 38.7904C581.763 35.7819 586.29 33.4585 591.354 31.8053C596.418 30.1522 601.78 29.333 607.439 29.333C616.986 29.333 625.55 31.567 633.145 36.05C640.741 40.533 646.579 46.5946 650.63 54.2499C654.696 61.9052 656.722 70.2753 656.722 79.3455M607.424 51.2563C601.646 51.2563 596.79 52.8499 592.844 56.0222C588.897 59.2094 586.216 63.6179 584.801 69.2775H630.911C629.735 65.3903 628.022 62.1137 625.788 59.4626C623.554 56.8116 620.873 54.7861 617.746 53.3712C614.633 51.9563 611.192 51.2563 607.424 51.2563Z" fill="#071412"/>
<path d="M751.798 130.217H720.522L689.96 84.6424V130.217H664.165V0.359863H689.96V77.2105L721.981 31.9937H751.843L716.113 80.219L751.798 130.217Z" fill="#071412"/>
<path d="M214.171 29.333C228.544 29.333 240.473 34.0989 249.946 43.6457C259.418 53.1925 264.169 65.1966 264.169 79.6881C264.169 94.1795 259.403 106.228 249.856 115.82C240.309 125.426 228.41 130.222 214.171 130.222C204.386 130.222 195.614 127.571 187.84 122.269V161.841H162.044V31.9692H179.186L183.61 40.6223C192.084 33.116 202.271 29.333 214.171 29.333M193.41 98.4241C198.295 103.369 204.476 105.841 211.967 105.841C219.459 105.841 225.654 103.369 230.614 98.4241C235.558 93.4795 238.031 87.2391 238.031 79.6881C238.031 74.7434 236.914 70.2605 234.665 66.2541C232.431 62.2477 229.333 59.135 225.386 56.8861C221.439 54.652 216.986 53.535 212.042 53.535C207.097 53.535 202.614 54.652 198.608 56.8861C194.601 59.1201 191.503 62.2477 189.329 66.2541C187.154 70.2605 186.052 74.7434 186.052 79.6881C186.082 87.2391 188.525 93.4795 193.41 98.4241" fill="#071412"/>
<path d="M55.0503 161.87V175.756C55.0503 176.868 55.9538 177.772 57.0659 177.772H67.9083C69.0203 177.772 69.9239 176.868 69.9239 175.756V161.87H55.0503V161.87ZM22.3285 113.857C37.4662 135.57 54.7862 151.208 54.7862 151.208H69.8683C69.8683 151.208 87.1883 135.57 102.326 113.857C90.163 111.397 76.6239 110.035 62.3342 110.035C48.0445 110.035 34.4776 111.411 22.3285 113.857M2.00599 71.8641C4.46638 82.2338 9.16475 92.5063 14.7667 102.07C28.7506 98.553 45.0003 96.5375 62.3342 96.5375C79.6681 96.5375 95.9178 98.553 109.902 102.07C115.504 92.5202 120.188 82.2338 122.662 71.8641C106.26 65.998 85.2422 62.4812 62.3481 62.4812C39.454 62.4812 18.4086 66.0119 2.00599 71.8641M62.1396 0.401565C56.8018 0.415465 2.64542 0.318158 0.157227 58.7837C0.157227 59.2702 0.212829 59.7706 0.24063 60.2571C16.8795 54.0158 38.5921 50.2349 62.3203 50.2349C86.0484 50.2349 107.761 54.0158 124.414 60.2571C124.442 59.7706 124.469 59.2702 124.497 58.7837C123.482 3.40407 76.5822 0.359863 64.739 0.359863C63.335 0.359863 62.4315 0.401565 62.1396 0.401565Z" fill="#071412"/>
<path d="M246.853 167.707C246.853 166.548 246.504 165.696 245.804 165.15C245.105 164.581 244.176 164.297 243.017 164.297C242.143 164.297 241.313 164.472 240.526 164.822C239.761 165.15 239.116 165.576 238.591 166.1L236.952 164.133C237.717 163.412 238.646 162.844 239.739 162.428C240.854 162.013 242.045 161.805 243.313 161.805C244.427 161.805 245.389 161.969 246.198 162.297C247.028 162.603 247.706 163.029 248.23 163.576C248.755 164.122 249.148 164.767 249.411 165.51C249.673 166.253 249.804 167.051 249.804 167.903V174.69C249.804 175.215 249.815 175.772 249.837 176.362C249.881 176.93 249.946 177.4 250.034 177.772H247.247C247.072 177.029 246.985 176.286 246.985 175.543H246.886C246.318 176.373 245.597 177.018 244.722 177.477C243.87 177.936 242.854 178.165 241.673 178.165C241.061 178.165 240.417 178.078 239.739 177.903C239.083 177.75 238.482 177.488 237.936 177.116C237.389 176.745 236.93 176.253 236.559 175.641C236.209 175.029 236.034 174.275 236.034 173.379C236.034 172.198 236.351 171.269 236.985 170.592C237.619 169.892 238.449 169.368 239.477 169.018C240.504 168.647 241.662 168.406 242.952 168.297C244.241 168.188 245.542 168.133 246.853 168.133V167.707ZM246.099 170.362C245.334 170.362 244.537 170.395 243.706 170.461C242.897 170.526 242.154 170.657 241.477 170.854C240.821 171.051 240.274 171.346 239.837 171.739C239.4 172.133 239.182 172.657 239.182 173.313C239.182 173.772 239.269 174.155 239.444 174.461C239.641 174.767 239.892 175.018 240.198 175.215C240.504 175.411 240.843 175.553 241.214 175.641C241.586 175.706 241.968 175.739 242.362 175.739C243.804 175.739 244.908 175.313 245.673 174.461C246.46 173.586 246.853 172.493 246.853 171.182V170.362H246.099Z" fill="#071412"/>
<path d="M274.412 177.772H271.166V157.412H263.724V154.56H281.854V157.412H274.412V177.772Z" fill="#071412"/>
<path d="M290.078 174.887H302.209V177.772H286.832V154.56H301.717V157.412H290.078V164.363H301.029V167.149H290.078V174.887Z" fill="#071412"/>
<path d="M311.654 174.887H322.014V177.772H308.408V154.56H311.654V174.887Z" fill="#071412"/>
<path d="M335.09 178.362C333.56 178.362 332.227 178.111 331.09 177.608C329.954 177.083 329.014 176.395 328.271 175.543C327.527 174.69 326.97 173.717 326.598 172.625C326.249 171.51 326.074 170.362 326.074 169.182V154.56H329.32V168.985C329.32 169.772 329.418 170.559 329.615 171.346C329.811 172.111 330.128 172.799 330.566 173.411C331.025 174.023 331.615 174.515 332.336 174.887C333.079 175.258 333.997 175.444 335.09 175.444C336.161 175.444 337.068 175.258 337.811 174.887C338.554 174.515 339.144 174.023 339.582 173.411C340.041 172.799 340.368 172.111 340.565 171.346C340.762 170.559 340.86 169.772 340.86 168.985V154.56H344.106V169.182C344.106 170.362 343.92 171.51 343.549 172.625C343.199 173.717 342.652 174.69 341.909 175.543C341.166 176.395 340.226 177.083 339.09 177.608C337.953 178.111 336.62 178.362 335.09 178.362Z" fill="#071412"/>
<path d="M363.004 158.855C362.545 158.221 361.922 157.707 361.135 157.314C360.348 156.898 359.463 156.691 358.48 156.691C357.955 156.691 357.419 156.767 356.873 156.92C356.348 157.051 355.868 157.281 355.43 157.609C354.993 157.915 354.633 158.308 354.349 158.789C354.086 159.248 353.955 159.805 353.955 160.461C353.955 161.095 354.075 161.631 354.316 162.068C354.578 162.483 354.917 162.844 355.332 163.15C355.769 163.434 356.272 163.685 356.84 163.904C357.43 164.1 358.053 164.308 358.709 164.527C359.496 164.767 360.294 165.04 361.102 165.346C361.911 165.652 362.643 166.057 363.299 166.559C363.955 167.062 364.49 167.696 364.906 168.461C365.321 169.204 365.528 170.155 365.528 171.313C365.528 172.515 365.299 173.564 364.84 174.461C364.403 175.335 363.813 176.067 363.07 176.657C362.326 177.225 361.463 177.652 360.479 177.936C359.518 178.22 358.523 178.362 357.496 178.362C356.032 178.362 354.611 178.078 353.234 177.51C351.879 176.941 350.753 176.1 349.857 174.985L352.381 172.854C352.928 173.663 353.66 174.319 354.578 174.821C355.496 175.324 356.491 175.575 357.562 175.575C358.108 175.575 358.654 175.499 359.201 175.346C359.747 175.193 360.239 174.952 360.676 174.625C361.135 174.297 361.507 173.892 361.791 173.411C362.075 172.909 362.217 172.308 362.217 171.608C362.217 170.909 362.064 170.33 361.758 169.871C361.474 169.39 361.081 168.985 360.578 168.658C360.075 168.33 359.485 168.056 358.807 167.838C358.152 167.597 357.452 167.357 356.709 167.117C355.966 166.898 355.234 166.636 354.512 166.33C353.791 166.002 353.146 165.598 352.578 165.117C352.01 164.614 351.551 164.002 351.201 163.281C350.851 162.559 350.677 161.663 350.677 160.592C350.677 159.434 350.906 158.439 351.365 157.609C351.846 156.778 352.458 156.09 353.201 155.543C353.966 154.997 354.818 154.604 355.758 154.363C356.72 154.101 357.682 153.97 358.643 153.97C359.999 153.97 361.266 154.21 362.447 154.691C363.627 155.172 364.578 155.817 365.299 156.625L363.004 158.855Z" fill="#071412"/>
<path d="M385.342 177.772H382.096V154.56H385.342V177.772Z" fill="#071412"/>
<path d="M394.849 162.232C394.893 162.625 394.926 163.073 394.948 163.576C394.969 164.057 394.98 164.461 394.98 164.789H395.079C395.275 164.374 395.538 163.991 395.865 163.641C396.215 163.27 396.609 162.953 397.046 162.691C397.483 162.406 397.964 162.188 398.488 162.035C399.013 161.882 399.559 161.805 400.128 161.805C401.133 161.805 401.996 161.98 402.718 162.33C403.439 162.658 404.04 163.106 404.521 163.674C405.002 164.242 405.351 164.909 405.57 165.674C405.81 166.439 405.931 167.259 405.931 168.133V177.772H402.849V169.149C402.849 168.515 402.794 167.914 402.685 167.346C402.597 166.778 402.423 166.275 402.16 165.838C401.898 165.401 401.537 165.051 401.078 164.789C400.619 164.527 400.029 164.395 399.308 164.395C398.084 164.395 397.079 164.865 396.292 165.805C395.527 166.723 395.144 167.958 395.144 169.51V177.772H392.062V165.576C392.062 165.16 392.051 164.625 392.03 163.969C392.008 163.314 391.975 162.734 391.931 162.232H394.849Z" fill="#071412"/>
<path d="M419.98 164.756H415.849V172.854C415.849 173.794 416.024 174.472 416.374 174.887C416.724 175.28 417.281 175.477 418.046 175.477C418.33 175.477 418.636 175.444 418.964 175.379C419.292 175.313 419.587 175.215 419.849 175.084L419.947 177.608C419.576 177.739 419.161 177.837 418.702 177.903C418.264 177.99 417.805 178.034 417.325 178.034C415.86 178.034 414.735 177.63 413.948 176.821C413.183 176.012 412.8 174.799 412.8 173.182V164.756H409.817V162.232H412.8V157.773H415.849V162.232H419.98V164.756Z" fill="#071412"/>
<path d="M436.426 168.625C436.404 168.013 436.294 167.444 436.098 166.92C435.923 166.373 435.65 165.904 435.278 165.51C434.928 165.117 434.48 164.811 433.934 164.592C433.409 164.352 432.786 164.232 432.065 164.232C431.409 164.232 430.786 164.352 430.196 164.592C429.628 164.811 429.125 165.117 428.688 165.51C428.273 165.904 427.923 166.373 427.639 166.92C427.377 167.444 427.224 168.013 427.18 168.625H436.426ZM439.54 169.871C439.54 170.045 439.54 170.22 439.54 170.395C439.54 170.57 439.529 170.745 439.507 170.92H427.18C427.202 171.575 427.344 172.198 427.606 172.789C427.89 173.357 428.262 173.86 428.721 174.297C429.18 174.712 429.704 175.04 430.295 175.28C430.907 175.521 431.551 175.641 432.229 175.641C433.278 175.641 434.185 175.411 434.95 174.952C435.715 174.493 436.316 173.936 436.753 173.28L438.917 175.018C438.087 176.111 437.103 176.919 435.967 177.444C434.852 177.947 433.606 178.198 432.229 178.198C431.049 178.198 429.956 178.001 428.95 177.608C427.945 177.215 427.082 176.668 426.36 175.969C425.639 175.247 425.071 174.384 424.656 173.379C424.24 172.373 424.033 171.259 424.033 170.035C424.033 168.832 424.229 167.729 424.623 166.723C425.038 165.696 425.606 164.822 426.328 164.1C427.049 163.379 427.901 162.822 428.885 162.428C429.868 162.013 430.928 161.805 432.065 161.805C433.202 161.805 434.229 161.991 435.147 162.363C436.087 162.734 436.874 163.27 437.507 163.969C438.163 164.669 438.666 165.521 439.016 166.526C439.365 167.51 439.54 168.625 439.54 169.871Z" fill="#071412"/>
<path d="M445.728 165.576C445.728 165.16 445.717 164.625 445.695 163.969C445.673 163.314 445.641 162.734 445.597 162.232H448.515C448.559 162.625 448.591 163.084 448.613 163.609C448.635 164.111 448.646 164.527 448.646 164.854H448.744C449.182 163.936 449.815 163.204 450.646 162.658C451.498 162.09 452.449 161.805 453.498 161.805C453.979 161.805 454.384 161.849 454.711 161.937L454.58 164.789C454.143 164.68 453.673 164.625 453.17 164.625C452.427 164.625 451.783 164.767 451.236 165.051C450.69 165.313 450.231 165.674 449.859 166.133C449.509 166.592 449.247 167.128 449.072 167.74C448.897 168.33 448.81 168.953 448.81 169.608V177.772H445.728V165.576Z" fill="#071412"/>
<path d="M462.278 162.232C462.322 162.625 462.355 163.073 462.377 163.576C462.399 164.057 462.41 164.461 462.41 164.789H462.508C462.705 164.374 462.967 163.991 463.295 163.641C463.644 163.27 464.038 162.953 464.475 162.691C464.912 162.406 465.393 162.188 465.918 162.035C466.442 161.882 466.989 161.805 467.557 161.805C468.562 161.805 469.426 161.98 470.147 162.33C470.868 162.658 471.469 163.106 471.95 163.674C472.431 164.242 472.781 164.909 472.999 165.674C473.24 166.439 473.36 167.259 473.36 168.133V177.772H470.278V169.149C470.278 168.515 470.223 167.914 470.114 167.346C470.027 166.778 469.852 166.275 469.59 165.838C469.327 165.401 468.967 165.051 468.508 164.789C468.049 164.527 467.459 164.395 466.737 164.395C465.513 164.395 464.508 164.865 463.721 165.805C462.956 166.723 462.573 167.958 462.573 169.51V177.772H459.492V165.576C459.492 165.16 459.481 164.625 459.459 163.969C459.437 163.314 459.404 162.734 459.361 162.232H462.278Z" fill="#071412"/>
<path d="M490.131 167.707C490.131 166.548 489.781 165.696 489.082 165.15C488.382 164.581 487.453 164.297 486.295 164.297C485.421 164.297 484.59 164.472 483.803 164.822C483.038 165.15 482.393 165.576 481.869 166.1L480.229 164.133C480.994 163.412 481.923 162.844 483.016 162.428C484.131 162.013 485.322 161.805 486.59 161.805C487.705 161.805 488.666 161.969 489.475 162.297C490.306 162.603 490.983 163.029 491.508 163.576C492.032 164.122 492.426 164.767 492.688 165.51C492.95 166.253 493.081 167.051 493.081 167.903V174.69C493.081 175.215 493.092 175.772 493.114 176.362C493.158 176.93 493.223 177.4 493.311 177.772H490.524C490.349 177.029 490.262 176.286 490.262 175.543H490.163C489.595 176.373 488.874 177.018 488 177.477C487.147 177.936 486.131 178.165 484.951 178.165C484.339 178.165 483.694 178.078 483.016 177.903C482.361 177.75 481.759 177.488 481.213 177.116C480.667 176.745 480.208 176.253 479.836 175.641C479.486 175.029 479.311 174.275 479.311 173.379C479.311 172.198 479.628 171.269 480.262 170.592C480.896 169.892 481.727 169.368 482.754 169.018C483.781 168.647 484.94 168.406 486.229 168.297C487.519 168.188 488.819 168.133 490.131 168.133V167.707ZM489.377 170.362C488.612 170.362 487.814 170.395 486.983 170.461C486.175 170.526 485.431 170.657 484.754 170.854C484.098 171.051 483.552 171.346 483.115 171.739C482.677 172.133 482.459 172.657 482.459 173.313C482.459 173.772 482.546 174.155 482.721 174.461C482.918 174.767 483.169 175.018 483.475 175.215C483.781 175.411 484.12 175.553 484.492 175.641C484.863 175.706 485.246 175.739 485.639 175.739C487.082 175.739 488.185 175.313 488.95 174.461C489.737 173.586 490.131 172.493 490.131 171.182V170.362H489.377Z" fill="#071412"/>
<path d="M507.4 164.756H503.269V172.854C503.269 173.794 503.444 174.472 503.793 174.887C504.143 175.28 504.7 175.477 505.465 175.477C505.75 175.477 506.056 175.444 506.383 175.379C506.711 175.313 507.006 175.215 507.269 175.084L507.367 177.608C506.995 177.739 506.58 177.837 506.121 177.903C505.684 177.99 505.225 178.034 504.744 178.034C503.28 178.034 502.154 177.63 501.367 176.821C500.602 176.012 500.22 174.799 500.22 173.182V164.756H497.236V162.232H500.22V157.773H503.269V162.232H507.4V164.756Z" fill="#071412"/>
<path d="M515.583 177.772H512.501V162.232H515.583V177.772ZM516.108 156.625C516.108 157.194 515.9 157.663 515.485 158.035C515.091 158.407 514.61 158.592 514.042 158.592C513.474 158.592 512.993 158.407 512.6 158.035C512.206 157.642 512.009 157.172 512.009 156.625C512.009 156.057 512.206 155.587 512.6 155.215C512.993 154.822 513.474 154.625 514.042 154.625C514.61 154.625 515.091 154.822 515.485 155.215C515.9 155.587 516.108 156.057 516.108 156.625Z" fill="#071412"/>
<path d="M537.592 169.969C537.592 171.171 537.373 172.275 536.936 173.28C536.521 174.286 535.93 175.16 535.165 175.903C534.422 176.624 533.537 177.193 532.51 177.608C531.483 178.001 530.379 178.198 529.198 178.198C528.018 178.198 526.914 178.001 525.887 177.608C524.86 177.193 523.975 176.624 523.232 175.903C522.488 175.16 521.898 174.286 521.461 173.28C521.046 172.275 520.838 171.171 520.838 169.969C520.838 168.767 521.046 167.674 521.461 166.69C521.898 165.685 522.488 164.822 523.232 164.1C523.975 163.379 524.86 162.822 525.887 162.428C526.914 162.013 528.018 161.805 529.198 161.805C530.379 161.805 531.483 162.013 532.51 162.428C533.537 162.822 534.422 163.379 535.165 164.1C535.93 164.822 536.521 165.685 536.936 166.69C537.373 167.674 537.592 168.767 537.592 169.969ZM534.379 169.969C534.379 169.226 534.258 168.515 534.018 167.838C533.799 167.16 533.472 166.57 533.034 166.067C532.597 165.543 532.051 165.128 531.395 164.822C530.761 164.516 530.029 164.363 529.198 164.363C528.368 164.363 527.625 164.516 526.969 164.822C526.335 165.128 525.8 165.543 525.363 166.067C524.925 166.57 524.587 167.16 524.346 167.838C524.128 168.515 524.018 169.226 524.018 169.969C524.018 170.712 524.128 171.422 524.346 172.1C524.587 172.778 524.925 173.379 525.363 173.903C525.8 174.428 526.335 174.843 526.969 175.149C527.625 175.455 528.368 175.608 529.198 175.608C530.029 175.608 530.761 175.455 531.395 175.149C532.051 174.843 532.597 174.428 533.034 173.903C533.472 173.379 533.799 172.778 534.018 172.1C534.258 171.422 534.379 170.712 534.379 169.969Z" fill="#071412"/>
<path d="M545.717 162.232C545.761 162.625 545.794 163.073 545.816 163.576C545.838 164.057 545.849 164.461 545.849 164.789H545.947C546.144 164.374 546.406 163.991 546.734 163.641C547.084 163.27 547.477 162.953 547.914 162.691C548.351 162.406 548.832 162.188 549.357 162.035C549.881 161.882 550.428 161.805 550.996 161.805C552.001 161.805 552.865 161.98 553.586 162.33C554.307 162.658 554.908 163.106 555.389 163.674C555.87 164.242 556.22 164.909 556.438 165.674C556.679 166.439 556.799 167.259 556.799 168.133V177.772H553.717V169.149C553.717 168.515 553.663 167.914 553.553 167.346C553.466 166.778 553.291 166.275 553.029 165.838C552.766 165.401 552.406 165.051 551.947 164.789C551.488 164.527 550.898 164.395 550.176 164.395C548.952 164.395 547.947 164.865 547.16 165.805C546.395 166.723 546.013 167.958 546.013 169.51V177.772H542.931V165.576C542.931 165.16 542.92 164.625 542.898 163.969C542.876 163.314 542.843 162.734 542.8 162.232H545.717Z" fill="#071412"/>
<path d="M572.586 167.707C572.586 166.548 572.237 165.696 571.537 165.15C570.838 164.581 569.909 164.297 568.75 164.297C567.876 164.297 567.045 164.472 566.259 164.822C565.494 165.15 564.849 165.576 564.324 166.1L562.685 164.133C563.45 163.412 564.379 162.844 565.472 162.428C566.586 162.013 567.778 161.805 569.045 161.805C570.16 161.805 571.122 161.969 571.931 162.297C572.761 162.603 573.439 163.029 573.963 163.576C574.488 164.122 574.881 164.767 575.143 165.51C575.406 166.253 575.537 167.051 575.537 167.903V174.69C575.537 175.215 575.548 175.772 575.57 176.362C575.613 176.93 575.679 177.4 575.766 177.772H572.98C572.805 177.029 572.717 176.286 572.717 175.543H572.619C572.051 176.373 571.329 177.018 570.455 177.477C569.603 177.936 568.586 178.165 567.406 178.165C566.794 178.165 566.149 178.078 565.472 177.903C564.816 177.75 564.215 177.488 563.669 177.116C563.122 176.745 562.663 176.253 562.292 175.641C561.942 175.029 561.767 174.275 561.767 173.379C561.767 172.198 562.084 171.269 562.718 170.592C563.352 169.892 564.182 169.368 565.21 169.018C566.237 168.647 567.395 168.406 568.685 168.297C569.974 168.188 571.275 168.133 572.586 168.133V167.707ZM571.832 170.362C571.067 170.362 570.269 170.395 569.439 170.461C568.63 170.526 567.887 170.657 567.209 170.854C566.554 171.051 566.007 171.346 565.57 171.739C565.133 172.133 564.914 172.657 564.914 173.313C564.914 173.772 565.002 174.155 565.177 174.461C565.373 174.767 565.625 175.018 565.931 175.215C566.237 175.411 566.576 175.553 566.947 175.641C567.319 175.706 567.701 175.739 568.095 175.739C569.537 175.739 570.641 175.313 571.406 174.461C572.193 173.586 572.586 172.493 572.586 171.182V170.362H571.832Z" fill="#071412"/>
<path d="M585.061 177.772H581.979V152.986L585.061 152.986V177.772Z" fill="#071412"/>
<path d="M622.461 174.166C621.543 175.411 620.352 176.428 618.888 177.215C617.423 177.98 615.664 178.362 613.609 178.362C611.839 178.362 610.2 178.067 608.691 177.477C607.205 176.865 605.916 176.023 604.823 174.952C603.752 173.86 602.91 172.57 602.298 171.084C601.686 169.576 601.38 167.925 601.38 166.133C601.38 164.319 601.686 162.669 602.298 161.182C602.932 159.674 603.796 158.396 604.888 157.347C606.003 156.276 607.314 155.445 608.823 154.855C610.331 154.265 611.97 153.97 613.74 153.97C614.527 153.97 615.325 154.046 616.134 154.199C616.942 154.352 617.718 154.582 618.462 154.888C619.205 155.194 619.882 155.576 620.494 156.035C621.106 156.472 621.631 156.986 622.068 157.576L619.511 159.543C618.942 158.756 618.134 158.112 617.085 157.609C616.057 157.084 614.943 156.822 613.74 156.822C612.385 156.822 611.161 157.073 610.068 157.576C608.997 158.057 608.08 158.724 607.315 159.576C606.55 160.428 605.959 161.423 605.544 162.559C605.129 163.674 604.921 164.865 604.921 166.133C604.921 167.444 605.118 168.668 605.511 169.805C605.927 170.942 606.506 171.936 607.249 172.789C608.014 173.619 608.932 174.275 610.003 174.756C611.096 175.237 612.309 175.477 613.642 175.477C614.954 175.477 616.145 175.215 617.216 174.69C618.287 174.166 619.172 173.401 619.871 172.395L622.461 174.166Z" fill="#071412"/>
<path d="M642.903 169.969C642.903 171.171 642.685 172.275 642.248 173.28C641.832 174.286 641.242 175.16 640.477 175.903C639.734 176.624 638.849 177.193 637.822 177.608C636.794 178.001 635.691 178.198 634.51 178.198C633.33 178.198 632.226 178.001 631.199 177.608C630.172 177.193 629.287 176.624 628.543 175.903C627.8 175.16 627.21 174.286 626.773 173.28C626.358 172.275 626.15 171.171 626.15 169.969C626.15 168.767 626.358 167.674 626.773 166.69C627.21 165.685 627.8 164.822 628.543 164.1C629.287 163.379 630.172 162.822 631.199 162.428C632.226 162.013 633.33 161.805 634.51 161.805C635.691 161.805 636.794 162.013 637.822 162.428C638.849 162.822 639.734 163.379 640.477 164.1C641.242 164.822 641.832 165.685 642.248 166.69C642.685 167.674 642.903 168.767 642.903 169.969ZM639.69 169.969C639.69 169.226 639.57 168.515 639.33 167.838C639.111 167.16 638.783 166.57 638.346 166.067C637.909 165.543 637.363 165.128 636.707 164.822C636.073 164.516 635.341 164.363 634.51 164.363C633.68 164.363 632.937 164.516 632.281 164.822C631.647 165.128 631.112 165.543 630.674 166.067C630.237 166.57 629.899 167.16 629.658 167.838C629.44 168.515 629.33 169.226 629.33 169.969C629.33 170.712 629.44 171.422 629.658 172.1C629.899 172.778 630.237 173.379 630.674 173.903C631.112 174.428 631.647 174.843 632.281 175.149C632.937 175.455 633.68 175.608 634.51 175.608C635.341 175.608 636.073 175.455 636.707 175.149C637.363 174.843 637.909 174.428 638.346 173.903C638.783 173.379 639.111 172.778 639.33 172.1C639.57 171.422 639.69 170.712 639.69 169.969Z" fill="#071412"/>
<path d="M650.603 164.789C650.997 163.958 651.62 163.259 652.472 162.691C653.346 162.1 654.373 161.805 655.554 161.805C656.603 161.805 657.543 162.046 658.373 162.527C659.226 163.008 659.892 163.805 660.373 164.92C660.898 163.915 661.63 163.15 662.57 162.625C663.51 162.079 664.537 161.805 665.652 161.805C666.657 161.805 667.52 161.98 668.242 162.33C668.963 162.658 669.564 163.106 670.045 163.674C670.526 164.242 670.876 164.909 671.094 165.674C671.335 166.439 671.455 167.259 671.455 168.133V177.772H668.373V169.149C668.373 168.515 668.318 167.914 668.209 167.346C668.1 166.778 667.914 166.275 667.652 165.838C667.389 165.401 667.04 165.051 666.602 164.789C666.165 164.527 665.608 164.395 664.93 164.395C664.231 164.395 663.63 164.548 663.127 164.854C662.625 165.139 662.209 165.521 661.881 166.002C661.575 166.461 661.346 166.985 661.193 167.576C661.062 168.166 660.996 168.767 660.996 169.379V177.772H657.914V168.526C657.914 167.914 657.86 167.357 657.75 166.854C657.641 166.352 657.455 165.925 657.193 165.576C656.931 165.204 656.592 164.92 656.177 164.723C655.761 164.505 655.248 164.395 654.636 164.395C653.499 164.395 652.548 164.865 651.783 165.805C651.04 166.723 650.669 167.958 650.669 169.51V177.772H647.587V165.576C647.587 165.16 647.576 164.625 647.554 163.969C647.532 163.314 647.499 162.734 647.456 162.232H650.374C650.417 162.625 650.45 163.073 650.472 163.576C650.494 164.057 650.505 164.461 650.505 164.789H650.603Z" fill="#071412"/>
<path d="M680.15 185.64H677.068V162.232H680.085V164.658H680.183C680.686 163.827 681.418 163.15 682.379 162.625C683.363 162.079 684.5 161.805 685.789 161.805C686.948 161.805 687.997 162.013 688.937 162.428C689.898 162.844 690.718 163.423 691.395 164.166C692.095 164.909 692.63 165.783 693.002 166.789C693.374 167.772 693.559 168.832 693.559 169.969C693.559 171.106 693.374 172.177 693.002 173.182C692.63 174.187 692.106 175.062 691.428 175.805C690.751 176.548 689.931 177.138 688.969 177.575C688.008 177.99 686.926 178.198 685.724 178.198C684.609 178.198 683.56 177.958 682.576 177.477C681.593 176.996 680.817 176.318 680.248 175.444H680.15V185.64ZM690.379 169.969C690.379 169.248 690.27 168.548 690.051 167.871C689.833 167.193 689.505 166.592 689.068 166.067C688.631 165.543 688.084 165.128 687.428 164.822C686.795 164.516 686.051 164.363 685.199 164.363C684.412 164.363 683.691 164.516 683.035 164.822C682.401 165.128 681.855 165.543 681.396 166.067C680.937 166.592 680.576 167.193 680.314 167.871C680.074 168.548 679.953 169.259 679.953 170.002C679.953 170.745 680.074 171.455 680.314 172.133C680.576 172.81 680.937 173.411 681.396 173.936C681.855 174.439 682.401 174.843 683.035 175.149C683.691 175.455 684.412 175.608 685.199 175.608C686.051 175.608 686.795 175.455 687.428 175.149C688.084 174.821 688.631 174.395 689.068 173.87C689.505 173.346 689.833 172.745 690.051 172.067C690.27 171.39 690.379 170.69 690.379 169.969Z" fill="#071412"/>
<path d="M708.503 167.707C708.503 166.548 708.153 165.696 707.453 165.15C706.754 164.581 705.825 164.297 704.667 164.297C703.792 164.297 702.962 164.472 702.175 164.822C701.41 165.15 700.765 165.576 700.241 166.1L698.601 164.133C699.366 163.412 700.295 162.844 701.388 162.428C702.503 162.013 703.694 161.805 704.962 161.805C706.076 161.805 707.038 161.969 707.847 162.297C708.677 162.603 709.355 163.029 709.88 163.576C710.404 164.122 710.798 164.767 711.06 165.51C711.322 166.253 711.453 167.051 711.453 167.903V174.69C711.453 175.215 711.464 175.772 711.486 176.362C711.53 176.93 711.595 177.4 711.683 177.772H708.896C708.721 177.029 708.634 176.286 708.634 175.543H708.535C707.967 176.373 707.246 177.018 706.372 177.477C705.519 177.936 704.503 178.165 703.322 178.165C702.71 178.165 702.066 178.078 701.388 177.903C700.732 177.75 700.131 177.488 699.585 177.116C699.039 176.745 698.58 176.253 698.208 175.641C697.858 175.029 697.683 174.275 697.683 173.379C697.683 172.198 698 171.269 698.634 170.592C699.268 169.892 700.099 169.368 701.126 169.018C702.153 168.647 703.312 168.406 704.601 168.297C705.891 168.188 707.191 168.133 708.503 168.133V167.707ZM707.749 170.362C706.984 170.362 706.186 170.395 705.355 170.461C704.546 170.526 703.803 170.657 703.126 170.854C702.47 171.051 701.924 171.346 701.486 171.739C701.049 172.133 700.831 172.657 700.831 173.313C700.831 173.772 700.918 174.155 701.093 174.461C701.29 174.767 701.541 175.018 701.847 175.215C702.153 175.411 702.492 175.553 702.863 175.641C703.235 175.706 703.618 175.739 704.011 175.739C705.454 175.739 706.557 175.313 707.322 174.461C708.109 173.586 708.503 172.493 708.503 171.182V170.362H707.749Z" fill="#071412"/>
<path d="M720.453 162.232C720.496 162.625 720.529 163.073 720.551 163.576C720.573 164.057 720.584 164.461 720.584 164.789H720.682C720.879 164.374 721.141 163.991 721.469 163.641C721.819 163.27 722.212 162.953 722.649 162.691C723.086 162.406 723.567 162.188 724.092 162.035C724.616 161.882 725.163 161.805 725.731 161.805C726.737 161.805 727.6 161.98 728.321 162.33C729.042 162.658 729.644 163.106 730.124 163.674C730.605 164.242 730.955 164.909 731.173 165.674C731.414 166.439 731.534 167.259 731.534 168.133V177.772H728.452V169.149C728.452 168.515 728.398 167.914 728.288 167.346C728.201 166.778 728.026 166.275 727.764 165.838C727.502 165.401 727.141 165.051 726.682 164.789C726.223 164.527 725.633 164.395 724.911 164.395C723.687 164.395 722.682 164.865 721.895 165.805C721.13 166.723 720.748 167.958 720.748 169.51V177.772H717.666V165.576C717.666 165.16 717.655 164.625 717.633 163.969C717.611 163.314 717.578 162.734 717.535 162.232H720.453Z" fill="#071412"/>
<path d="M743.879 174.428H743.944L748.239 162.232H751.518L743.977 181.444C743.715 182.1 743.431 182.679 743.125 183.182C742.819 183.706 742.458 184.143 742.043 184.493C741.628 184.865 741.136 185.149 740.568 185.345C740.021 185.542 739.365 185.64 738.6 185.64C738.273 185.64 737.934 185.619 737.584 185.575C737.256 185.553 736.917 185.498 736.568 185.411L736.863 182.69C737.387 182.865 737.901 182.952 738.404 182.952C739.212 182.952 739.814 182.723 740.207 182.264C740.6 181.826 740.961 181.193 741.289 180.362L742.272 177.772L735.617 162.232H739.059L743.879 174.428Z" fill="#071412"/>
</svg>
